<?xml version="1.0" encoding="utf-8"?>
<!-- Generator: Adobe Illustrator 21.1.0, SVG Export Plug-In . SVG Version: 6.00 Build 0)  -->
<svg version="1.1" id="Logo" xmlns="http://www.w3.org/2000/svg" xmlns:xlink="http://www.w3.org/1999/xlink" x="0px" y="0px"
	 viewBox="0 0 180 180" style="enable-background:new 0 0 180 180;" xml:space="preserve">
<style type="text/css">
	.st0{fill:#C0AC00;}
	.st1{fill:#123E8D;}
</style>
<path class="st0" d="M87.8,88.7l0.5-0.2L49.5,3c-1.9,5.3-6.2,15.8-11,21.8c-6.7,8.4-26.3,40-18,53.1L87.8,88.7z"/>
<path class="st1" d="M75.6,163.8c5-1.7,31.8-11.5,35.2-13.2c0,0,5.5-2.2,3.8-6.7c-0.2-0.2-0.5-1-0.7-1.9L95,100.2L75.6,163.8z"/>
<path class="st0" d="M46.6,116.4L83,94l-60.3-9.6c3.4,7.9,13.2,30.2,14.8,33c0,0,1.7,3.4,4.5,1.7C42.8,118.6,44.5,117.6,46.6,116.4"
	/>
<path class="st1" d="M109.3,25.5c-22,5.3-22.5,4.5-34,8.9c0,0-3.1,0.5-3.1,4.8c0,0.7,0.2,1.2,0.5,1.9l19.1,42.4L109.3,25.5z"/>
<path class="st1" d="M89.5,96.3l-74.7,46c5,0.5,9.6,2.4,13.6,5.5c6.5,5.5,30.6,23.5,40,18.4L89.5,96.3z"/>
<path class="st1" d="M116,25.7L98.3,84.4l67-41.2c-2.4,0.2-6.5-0.2-11-4.8C146.7,31.2,128.2,15.4,116,25.7"/>
<path class="st0" d="M130.4,71L98.3,90.8l63.4,10.3c-13.2-27-11.2-23-17.2-34.5c-1-1.4-3.1-2.2-4.5-1.2
	C138.8,65.9,135.2,68.1,130.4,71"/>
<path class="st0" d="M99.5,97.1l30.6,67.7c4.1,7.4,7.4,12.4,8.6,13.4c-0.2-6,1.7-12,5.5-16.8c6.5-8.1,24.2-39.7,18.2-54.1L99.5,97.1
	z"/>
</svg>
